<svg width="44" height="44" viewBox="0 0 44 44" fill="none" xmlns="http://www.w3.org/2000/svg">
<path fill-rule="evenodd" clip-rule="evenodd" d="M32.9565 34.0172C33.2494 34.3101 33.7243 34.3101 34.0172 34.0172C34.3101 33.7243 34.3101 33.2494 34.0172 32.9565L23.1791 22.1184L34.0172 11.2803C34.3101 10.9874 34.3101 10.5126 34.0172 10.2197C33.7243 9.92678 33.2494 9.92678 32.9565 10.2197L22.1184 21.0578L11.2803 10.2197C10.9874 9.92678 10.5126 9.92678 10.2197 10.2197C9.92678 10.5126 9.92678 10.9874 10.2197 11.2803L21.0578 22.1184L10.2197 32.9565C9.92678 33.2494 9.92678 33.7243 10.2197 34.0172C10.5126 34.3101 10.9874 34.3101 11.2803 34.0172L22.1184 23.1791L32.9565 34.0172Z" fill="#323232"/>
</svg>
