<?xml version="1.0" encoding="utf-8"?>
<!-- Generator: Adobe Illustrator 26.0.1, SVG Export Plug-In . SVG Version: 6.00 Build 0)  -->
<svg version="1.1" id="Layer_1" xmlns="http://www.w3.org/2000/svg" xmlns:xlink="http://www.w3.org/1999/xlink" x="0px" y="0px"
	 viewBox="0 0 32 32" style="enable-background:new 0 0 32 32;" xml:space="preserve">
<style type="text/css">
	.st0{fill:#211A41;}
	.st1{fill:#FBFAF6;}
</style>
<path class="st0" d="M16,32L16,32C7.2,32,0,24.8,0,16v0C0,7.2,7.2,0,16,0h0c8.8,0,16,7.2,16,16v0C32,24.8,24.8,32,16,32z"/>
<g>
	<path class="st1" d="M20.5,6.9v1.3h3.2v9.9c0,2-0.8,3.9-2.3,5.4C19.9,25,18,25.8,16,25.8c-4.2,0-7.7-3.5-7.7-7.7V8.2h3.2V6.9H7
		v11.2c0,1.2,0.3,2.4,0.7,3.5c0.5,1.1,1.1,2,1.9,2.8c0.8,0.8,1.7,1.5,2.8,1.9c1.1,0.5,2.3,0.7,3.5,0.7c1.2,0,2.4-0.3,3.5-0.7
		c1.1-0.5,2-1.1,2.8-1.9s1.5-1.7,1.9-2.8c0.5-1.1,0.7-2.3,0.7-3.5V6.9H20.5z"/>
	<path class="st1" d="M14.2,13.5l0.5,0.5c0.2,0.2,0.5,0.2,0.7,0c0.2-0.2,0.2-0.5,0-0.7l-0.5-0.5c-0.6-0.6-0.6-1.6,0-2.3
		c0.6-0.6,1.6-0.6,2.3,0c0.6,0.6,0.6,1.6,0,2.3l-1.8,1.8l0.7,0.7l3.3-3.3c0.2-0.2,0.2-0.5,0-0.7c-0.2-0.2-0.5-0.2-0.7,0l-0.1,0.1
		c-0.1-0.5-0.3-1.1-0.7-1.6c-1-1-2.7-1-3.7,0S13.2,12.5,14.2,13.5L14.2,13.5z"/>
	<path class="st1" d="M16.6,17.4L16,16.6l-3.3,3.3c-0.2,0.2-0.2,0.5,0,0.7c0.2,0.2,0.5,0.2,0.7,0l0.1-0.1c0.1,0.5,0.3,1.1,0.7,1.6
		c1,1,2.7,1,3.7,0s1-2.7,0-3.7l0,0L17.5,18c-0.2-0.2-0.5-0.2-0.7,0c-0.2,0.2-0.2,0.5,0,0.7l0.5,0.5l0,0c0.6,0.6,0.6,1.6,0,2.3
		c-0.6,0.6-1.6,0.6-2.3,0c-0.6-0.6-0.6-1.6,0-2.3L16.6,17.4z"/>
	<path class="st1" d="M11.3,13.4L11.3,13.4c-0.5,0.1-1,0.4-1.5,0.8c-1,1-1,2.7,0,3.7s2.7,1,3.7,0l0,0l0.5-0.5c0.2-0.2,0.2-0.5,0-0.7
		c-0.2-0.2-0.5-0.2-0.7,0l-0.5,0.5l0,0c-0.6,0.6-1.6,0.6-2.3,0c-0.6-0.6-0.6-1.6,0-2.3c0.6-0.6,1.6-0.6,2.3,0l1.8,1.8l0.7-0.7
		l-3.3-3.3c-0.2-0.2-0.5-0.2-0.7,0C11.2,12.9,11.2,13.3,11.3,13.4z"/>
	<path class="st1" d="M22.1,14.2c-1-1-2.7-1-3.7,0l0,0L18,14.6c-0.2,0.2-0.2,0.5,0,0.7l0,0c0.2,0.2,0.5,0.2,0.7,0l0.5-0.5l0,0
		c0.6-0.6,1.6-0.6,2.3,0c0.6,0.6,0.6,1.6,0,2.3c-0.6,0.6-1.6,0.6-2.3,0l-1.8-1.8l-0.7,0.7l3.3,3.3c0.2,0.2,0.5,0.2,0.7,0
		c0.2-0.2,0.2-0.5,0-0.7l-0.1-0.1c0.5-0.1,1.1-0.3,1.6-0.7C23.1,16.8,23.1,15.2,22.1,14.2z"/>
</g>
</svg>
