<svg width="88" height="88" viewBox="0 0 88 88" fill="none" xmlns="http://www.w3.org/2000/svg">
<rect width="88" height="88" rx="44" fill="#0492C2"/>
<path d="M46.3345 39.3313H55.6717" stroke="white" stroke-width="3" stroke-linecap="round" stroke-linejoin="round"/>
<path d="M32.3286 38.6917L34.4738 40.6245L38.7923 36.7356" stroke="white" stroke-width="3" stroke-linecap="round" stroke-linejoin="round"/>
<path d="M41.6657 65.0087H34.6627C28.2167 65.0087 22.9912 59.7832 22.9912 53.3372V34.6627C22.9912 28.2167 28.2167 22.9912 34.6627 22.9912H53.3372C59.7832 22.9912 65.0087 28.2167 65.0087 34.6627V41.6657" stroke="white" stroke-width="3" stroke-linecap="round" stroke-linejoin="round"/>
<path d="M32.3286 50.3633L34.4738 52.2961L38.7923 48.4071" stroke="white" stroke-width="3" stroke-linecap="round" stroke-linejoin="round"/>
<path d="M51.0596 57.8191V63.2516C51.0593 64.4448 51.7336 65.5357 52.801 66.0691L54.0195 66.6783C55.7932 67.5648 57.8807 67.5648 59.6545 66.6783L60.873 66.0691C61.9404 65.5357 62.6146 64.4448 62.6144 63.2516V57.8191" stroke="white" stroke-width="3" stroke-linecap="round" stroke-linejoin="round"/>
<path fill-rule="evenodd" clip-rule="evenodd" d="M47.3029 55.9373L54.504 59.5344C55.9772 60.2693 57.7102 60.2693 59.1834 59.5344L66.3775 55.9373C66.9688 55.6424 67.3425 55.0386 67.3425 54.3779C67.3425 53.7171 66.9688 53.1133 66.3775 52.8184L59.1694 49.2213C57.6967 48.4842 55.9627 48.4842 54.49 49.2213L47.2959 52.8184C46.7053 53.1146 46.333 53.7193 46.3345 54.38C46.336 55.0407 46.711 55.6438 47.3029 55.9373V55.9373Z" stroke="white" stroke-width="3" stroke-linecap="round" stroke-linejoin="round"/>
<path d="M67.3429 54.3806V58.5824" stroke="white" stroke-width="3" stroke-linecap="round" stroke-linejoin="round"/>
</svg>
