<svg width="140" height="40" viewBox="0 0 140 40" fill="none" xmlns="http://www.w3.org/2000/svg">
<g clip-path="url(#clip0_176_979)">
<path d="M20 0C25.5241 0 30.5241 2.23958 34.1406 5.85938C34.2969 6.01562 34.4531 6.17513 34.6029 6.33789L33.9779 8.44076C33.6133 8.0013 33.2292 7.57813 32.8255 7.17448C29.5443 3.89323 25.0098 1.86198 20 1.86198C14.9902 1.86198 10.4557 3.89323 7.17448 7.17448C3.89323 10.4557 1.86198 14.9902 1.86198 20C1.86198 25.0098 3.89323 29.5443 7.17448 32.8255C10.4557 36.1068 14.9902 38.138 20 38.138C25.0098 38.138 29.5443 36.1068 32.8255 32.8255C36.1068 29.5443 38.138 25.0098 38.138 20C38.138 18.3268 37.9102 16.709 37.487 15.1693L38.3919 12.1322C39.4271 14.5475 40 17.207 40 20C40 25.5241 37.7604 30.5241 34.1406 34.1406C30.5208 37.7604 25.5208 40 20 40C14.4759 40 9.47591 37.7604 5.85938 34.1406C2.23958 30.5241 0 25.5241 0 20C0 14.4759 2.23958 9.47591 5.85938 5.85938C9.47591 2.23958 14.4759 0 20 0ZM27.5033 21.4746C28.265 21.4746 28.9388 21.8522 29.349 22.4316L31.9076 21.9564L37.2526 3.99089C37.3991 3.48958 37.9264 3.20312 38.4277 3.34961C38.929 3.49609 39.2155 4.02344 39.069 4.52474L33.5579 23.0469C33.4505 23.4147 33.138 23.6686 32.7799 23.7174L29.694 24.2904C29.4466 25.2734 28.5579 25.9994 27.5 25.9994C26.25 25.9994 25.2376 24.987 25.2376 23.737C25.2376 22.487 26.2533 21.4746 27.5033 21.4746ZM11.1393 17.8678C10.9961 18.2812 10.5469 18.4993 10.1335 18.3594C9.72005 18.2161 9.50195 17.7669 9.64193 17.3535C10.2018 15.7357 11.0905 14.2773 12.2266 13.0534C13.3659 11.8262 14.7591 10.8333 16.3249 10.1563C16.7253 9.98372 17.1908 10.1693 17.3633 10.5697C17.5358 10.9701 17.3503 11.4355 16.9499 11.6081C15.5924 12.194 14.3815 13.0599 13.3854 14.1341C12.3991 15.1986 11.6276 16.4681 11.1393 17.8678ZM6.93034 17.0736C6.82292 17.5 6.38997 17.7572 5.9668 17.6465C5.54036 17.5391 5.2832 17.1061 5.39388 16.6797C6.0319 14.1797 7.27865 11.9238 8.96159 10.0749C10.6576 8.21289 12.7995 6.76758 15.2148 5.90169C15.6283 5.75521 16.084 5.97005 16.2305 6.38346C16.377 6.79688 16.1621 7.2526 15.7487 7.39909C13.5775 8.17708 11.6569 9.47591 10.1335 11.1426C8.62305 12.8027 7.50326 14.8307 6.93034 17.0736ZM20 15.3451C21.2858 15.3451 22.4512 15.8659 23.291 16.709C24.1341 17.5521 24.6549 18.7142 24.6549 20C24.6549 21.2858 24.1341 22.4512 23.291 23.291C22.4479 24.1341 21.2858 24.6549 20 24.6549C18.7142 24.6549 17.5488 24.1341 16.709 23.291C15.8659 22.4479 15.3451 21.2858 15.3451 20C15.3451 18.7142 15.8659 17.5488 16.709 16.709C17.5488 15.8659 18.7142 15.3451 20 15.3451Z" fill="black"/>
</g>
<path d="M61.1172 22.625L63.7969 13.625H66.4062L62.4453 25H60.7266L61.1172 22.625ZM58.6484 13.625L61.3203 22.625L61.7266 25H59.9922L56.0547 13.625H58.6484ZM69.9609 13.625V25H67.625V13.625H69.9609ZM74.6484 13.625V25H72.3125V13.625H74.6484ZM88.1406 23.1719V25H82.4141V23.1719H88.1406ZM83.1719 13.625V25H80.8281V13.625H83.1719ZM97.1172 23.1719V25H91.0625V23.1719H97.1172ZM91.8281 13.625V25H89.4844V13.625H91.8281ZM96.3281 18.2578V20.0391H91.0625V18.2578H96.3281ZM97.1094 13.625V15.4609H91.0625V13.625H97.1094ZM104.406 22.0234C104.406 21.8203 104.375 21.638 104.312 21.4766C104.255 21.3099 104.146 21.1589 103.984 21.0234C103.823 20.8828 103.596 20.7448 103.305 20.6094C103.013 20.474 102.635 20.3333 102.172 20.1875C101.656 20.0208 101.167 19.8333 100.703 19.625C100.245 19.4167 99.8385 19.1745 99.4844 18.8984C99.1354 18.6172 98.8594 18.2917 98.6562 17.9219C98.4583 17.5521 98.3594 17.1224 98.3594 16.6328C98.3594 16.1589 98.4635 15.7292 98.6719 15.3438C98.8802 14.9531 99.1719 14.6198 99.5469 14.3438C99.9219 14.0625 100.365 13.8464 100.875 13.6953C101.391 13.5443 101.956 13.4688 102.57 13.4688C103.409 13.4688 104.141 13.6198 104.766 13.9219C105.391 14.224 105.875 14.638 106.219 15.1641C106.568 15.6901 106.742 16.2917 106.742 16.9688H104.414C104.414 16.6354 104.344 16.3438 104.203 16.0938C104.068 15.8385 103.859 15.638 103.578 15.4922C103.302 15.3464 102.953 15.2734 102.531 15.2734C102.125 15.2734 101.786 15.3359 101.516 15.4609C101.245 15.5807 101.042 15.7448 100.906 15.9531C100.771 16.1562 100.703 16.3854 100.703 16.6406C100.703 16.8333 100.75 17.0078 100.844 17.1641C100.943 17.3203 101.089 17.4661 101.281 17.6016C101.474 17.737 101.711 17.8646 101.992 17.9844C102.273 18.1042 102.599 18.2214 102.969 18.3359C103.589 18.5234 104.133 18.7344 104.602 18.9688C105.076 19.2031 105.471 19.4661 105.789 19.7578C106.107 20.0495 106.346 20.3802 106.508 20.75C106.669 21.1198 106.75 21.5391 106.75 22.0078C106.75 22.5026 106.654 22.9453 106.461 23.3359C106.268 23.7266 105.99 24.0573 105.625 24.3281C105.26 24.599 104.826 24.8047 104.32 24.9453C103.815 25.0859 103.25 25.1562 102.625 25.1562C102.062 25.1562 101.508 25.0833 100.961 24.9375C100.414 24.7865 99.9167 24.5599 99.4688 24.2578C99.026 23.9557 98.6719 23.5703 98.4062 23.1016C98.1406 22.6328 98.0078 22.0781 98.0078 21.4375H100.359C100.359 21.7917 100.414 22.0911 100.523 22.3359C100.633 22.5807 100.786 22.7786 100.984 22.9297C101.188 23.0807 101.427 23.1901 101.703 23.2578C101.984 23.3255 102.292 23.3594 102.625 23.3594C103.031 23.3594 103.365 23.3021 103.625 23.1875C103.891 23.0729 104.086 22.9141 104.211 22.7109C104.341 22.5078 104.406 22.2786 104.406 22.0234ZM114.266 22.0234C114.266 21.8203 114.234 21.638 114.172 21.4766C114.115 21.3099 114.005 21.1589 113.844 21.0234C113.682 20.8828 113.456 20.7448 113.164 20.6094C112.872 20.474 112.495 20.3333 112.031 20.1875C111.516 20.0208 111.026 19.8333 110.562 19.625C110.104 19.4167 109.698 19.1745 109.344 18.8984C108.995 18.6172 108.719 18.2917 108.516 17.9219C108.318 17.5521 108.219 17.1224 108.219 16.6328C108.219 16.1589 108.323 15.7292 108.531 15.3438C108.74 14.9531 109.031 14.6198 109.406 14.3438C109.781 14.0625 110.224 13.8464 110.734 13.6953C111.25 13.5443 111.815 13.4688 112.43 13.4688C113.268 13.4688 114 13.6198 114.625 13.9219C115.25 14.224 115.734 14.638 116.078 15.1641C116.427 15.6901 116.602 16.2917 116.602 16.9688H114.273C114.273 16.6354 114.203 16.3438 114.062 16.0938C113.927 15.8385 113.719 15.638 113.438 15.4922C113.161 15.3464 112.812 15.2734 112.391 15.2734C111.984 15.2734 111.646 15.3359 111.375 15.4609C111.104 15.5807 110.901 15.7448 110.766 15.9531C110.63 16.1562 110.562 16.3854 110.562 16.6406C110.562 16.8333 110.609 17.0078 110.703 17.1641C110.802 17.3203 110.948 17.4661 111.141 17.6016C111.333 17.737 111.57 17.8646 111.852 17.9844C112.133 18.1042 112.458 18.2214 112.828 18.3359C113.448 18.5234 113.992 18.7344 114.461 18.9688C114.935 19.2031 115.331 19.4661 115.648 19.7578C115.966 20.0495 116.206 20.3802 116.367 20.75C116.529 21.1198 116.609 21.5391 116.609 22.0078C116.609 22.5026 116.513 22.9453 116.32 23.3359C116.128 23.7266 115.849 24.0573 115.484 24.3281C115.12 24.599 114.685 24.8047 114.18 24.9453C113.674 25.0859 113.109 25.1562 112.484 25.1562C111.922 25.1562 111.367 25.0833 110.82 24.9375C110.273 24.7865 109.776 24.5599 109.328 24.2578C108.885 23.9557 108.531 23.5703 108.266 23.1016C108 22.6328 107.867 22.0781 107.867 21.4375H110.219C110.219 21.7917 110.273 22.0911 110.383 22.3359C110.492 22.5807 110.646 22.7786 110.844 22.9297C111.047 23.0807 111.286 23.1901 111.562 23.2578C111.844 23.3255 112.151 23.3594 112.484 23.3594C112.891 23.3594 113.224 23.3021 113.484 23.1875C113.75 23.0729 113.945 22.9141 114.07 22.7109C114.201 22.5078 114.266 22.2786 114.266 22.0234ZM127.547 19.0469V19.5859C127.547 20.4505 127.43 21.2266 127.195 21.9141C126.961 22.6016 126.63 23.1875 126.203 23.6719C125.776 24.151 125.266 24.5182 124.672 24.7734C124.083 25.0286 123.43 25.1562 122.711 25.1562C121.997 25.1562 121.344 25.0286 120.75 24.7734C120.161 24.5182 119.651 24.151 119.219 23.6719C118.786 23.1875 118.451 22.6016 118.211 21.9141C117.977 21.2266 117.859 20.4505 117.859 19.5859V19.0469C117.859 18.1771 117.977 17.401 118.211 16.7188C118.445 16.0312 118.776 15.4453 119.203 14.9609C119.635 14.4766 120.146 14.1068 120.734 13.8516C121.328 13.5964 121.982 13.4688 122.695 13.4688C123.414 13.4688 124.068 13.5964 124.656 13.8516C125.25 14.1068 125.76 14.4766 126.188 14.9609C126.62 15.4453 126.953 16.0312 127.188 16.7188C127.427 17.401 127.547 18.1771 127.547 19.0469ZM125.18 19.5859V19.0312C125.18 18.4271 125.125 17.8958 125.016 17.4375C124.906 16.9792 124.745 16.5938 124.531 16.2812C124.318 15.9688 124.057 15.7344 123.75 15.5781C123.443 15.4167 123.091 15.3359 122.695 15.3359C122.299 15.3359 121.948 15.4167 121.641 15.5781C121.339 15.7344 121.081 15.9688 120.867 16.2812C120.659 16.5938 120.5 16.9792 120.391 17.4375C120.281 17.8958 120.227 18.4271 120.227 19.0312V19.5859C120.227 20.1849 120.281 20.7161 120.391 21.1797C120.5 21.638 120.661 22.026 120.875 22.3438C121.089 22.6562 121.349 22.8932 121.656 23.0547C121.964 23.2161 122.315 23.2969 122.711 23.2969C123.107 23.2969 123.458 23.2161 123.766 23.0547C124.073 22.8932 124.331 22.6562 124.539 22.3438C124.747 22.026 124.906 21.638 125.016 21.1797C125.125 20.7161 125.18 20.1849 125.18 19.5859ZM138.492 13.625V25H136.148L131.578 17.375V25H129.234V13.625H131.578L136.156 21.2578V13.625H138.492Z" fill="black"/>
<defs>
<clipPath id="clip0_176_979">
<rect width="40" height="40" fill="white"/>
</clipPath>
</defs>
</svg>
