<svg id="Layer_1" data-name="Layer 1" xmlns="http://www.w3.org/2000/svg" viewBox="0 0 100 100"><defs><style>.cls-1{fill:#fff;}</style></defs><path class="cls-1" d="M3,81.35c0-3.6,0-7.19,0-10.79,0-1,.32-1.39,1.33-1.31a36.29,36.29,0,0,0,13-1.75c4.47-1.3,9.09-2.09,13.67-3a17.08,17.08,0,0,1,4-.29,30,30,0,0,0,13.56-3,52.36,52.36,0,0,1,6.61-2.43,4.45,4.45,0,0,1,2.89.3,3,3,0,0,1,1.21,4.51,19.21,19.21,0,0,1-3.92,4A57.47,57.47,0,0,1,43.3,74.18a7.53,7.53,0,0,0-1,.42,5.43,5.43,0,0,0-.7.66c.24.22.44.56.72.66,2.19.75,4.36,1.56,6.59,2.14,5.14,1.35,10.09.07,15-1.2A49.9,49.9,0,0,0,84.56,66.14a18.12,18.12,0,0,1,9.2-4.62c1.1-.16,2.3-.23,2.92.86a2.7,2.7,0,0,1-.52,3.12,12,12,0,0,1-1.47,1.63c-4.71,4.26-9.4,8.52-14.15,12.72a52.29,52.29,0,0,1-13.46,8.53c-6.62,3-13.25,5.92-19.85,8.94-5,2.3-10.1,3-15.4,1.06A43.45,43.45,0,0,0,27,96.92c-5.14-1.24-10.27-2.46-15.44-3.57a16.73,16.73,0,0,0-3.81,0c-1.16,0-2.32,0-3.48.13-.93.07-1.21-.32-1.2-1.21C3.06,88.62,3,85,3,81.35Z"/><path class="cls-1" d="M55.34,31.77c0,1.84,0,3.53,0,5.22,0,1.54-.65,2.19-2.18,2.2q-3.12,0-6.26,0c-1.64,0-2.28-.67-2.3-2.35s0-3.3,0-5.08c-1.82,0-3.51,0-5.2,0-1.52,0-2.12-.57-2.15-2.08,0-2.16,0-4.33,0-6.49,0-1.43.64-2.05,2.08-2.08,1.69-.05,3.39,0,5.27,0V16.43c0-2.14.54-2.68,2.66-2.69s3.94,0,5.91,0c1.55,0,2.16.64,2.17,2.19s0,3.31,0,5.16c1.64,0,3.16,0,4.69,0,2.24,0,2.71.48,2.71,2.74,0,1.89,0,3.79,0,5.68,0,1.66-.58,2.24-2.21,2.25S57.2,31.77,55.34,31.77Z"/><path class="cls-1" d="M76,25.22H69.86a44.56,44.56,0,0,0-1.42-5.52C65.53,12.31,60.07,8,52.19,6.94c-.79-.11-1.06-.35-1-1.13,0-1.77,0-3.54,0-5.31C63.76.58,75.75,11.71,76,25.22Z"/><path class="cls-1" d="M24,25.27C24.39,11.33,36.43.62,48.81.5c0,2,0,3.91,0,5.87,0,.19-.53.48-.83.52A19.68,19.68,0,0,0,30.84,22c-.2.82-.24,1.68-.43,2.5-.08.3-.39.77-.6.77C27.89,25.29,26,25.27,24,25.27Z"/><path class="cls-1" d="M51.25,52.38V46.21A20.15,20.15,0,0,0,69.72,27.75H75.9C76.13,40.31,64.3,52.39,51.25,52.38Z"/><path class="cls-1" d="M24,27.66c2,0,3.85,0,5.73.05.26,0,.67.56.71.9a19.36,19.36,0,0,0,5,11.09A19.62,19.62,0,0,0,48.1,46.06l.64.1v6.21C37.2,52.51,24.4,42.17,24,27.66Z"/><path class="cls-1" d="M62.63,76c6.75-4,12-9.59,17.44-14.92A13.94,13.94,0,0,1,83.18,59a1,1,0,0,1,1.51.95c-.09,2.53-.2,5-2.5,6.86a48.44,48.44,0,0,1-19,9.2A3.43,3.43,0,0,1,62.63,76Z"/><path class="cls-1" d="M59.89,76c3.82-3.77,6.65-8.27,10-12.38a17.49,17.49,0,0,1,3.37-3.11c1-.71,1.68-.3,1.65.88-.06,2-.34,3.88-2,5.36A53.58,53.58,0,0,1,61,75.47C60.65,75.66,60.27,75.82,59.89,76Z"/><path class="cls-1" d="M64.11,66.15c0,1.66.24,3.38-1.1,4.72-1.9,1.9-3.81,3.79-5.83,5.56a11.19,11.19,0,0,1-2.62,1.28l-.15-.25a1.07,1.07,0,0,1,.23-.35A22.14,22.14,0,0,0,60.2,70a19.08,19.08,0,0,1,2.44-3.2,5.42,5.42,0,0,1,1.15-.82Z"/></svg>