<svg id="Layer_1" data-name="Layer 1" xmlns="http://www.w3.org/2000/svg" viewBox="0 0 100 100"><defs><style>.cls-1{fill:#fff;}</style></defs><path class="cls-1" d="M48.31.5C67.4.52,82,13.78,83.56,31c.63,6.71-1.47,12.82-4,18.83A224.89,224.89,0,0,1,63,81c-3.54,5.72-7.27,11.33-10.94,17-1.35,2.08-2.6,2.09-4,0C37.81,82.72,28,67.22,20.7,50.27A56.91,56.91,0,0,1,16.79,38c-1.49-8.35.67-16.11,5.53-23C29.05,5.5,38.42.8,48.31.5ZM73.6,34A23.6,23.6,0,1,0,50.19,57.65,23.52,23.52,0,0,0,73.6,34Z"/><path class="cls-1" d="M44.05,40c-2.12,0-4,0-5.88,0-1.67,0-2.3-.62-2.31-2.27q0-3.7,0-7.41c0-1.51.58-2.1,2.11-2.15s3.2-.07,4.8,0c1,0,1.34-.35,1.3-1.35-.07-1.55,0-3.1,0-4.65s.66-2.22,2.21-2.25c2.47,0,4.95,0,7.42,0,1.57,0,2.2.65,2.25,2.21s.06,3.2,0,4.79c0,1,.35,1.28,1.27,1.25,1.55-.05,3.1,0,4.65,0,1.72,0,2.3.61,2.32,2.27,0,2.42,0,4.84,0,7.26,0,1.66-.66,2.29-2.3,2.31C60,40,58.12,40,56,40c0,1.77,0,3.44,0,5.11,0,2.72-.37,3.09-3.11,3.09h-6c-2.36,0-2.83-.47-2.84-2.78Z"/></svg>