<svg id="Layer_1" data-name="Layer 1" xmlns="http://www.w3.org/2000/svg" viewBox="0 0 100 100"><defs><style>.cls-1{fill:#fff;}</style></defs><path class="cls-1" d="M66.8,37.79c-.66.86-1.26,1.52-1.72,2.25a10.11,10.11,0,0,0,1.49,12.67q5.57,5.59,11.15,11.16a4.36,4.36,0,0,1,.61,3.34.93.93,0,0,1-.36.35l-12.56,8-.2.05a1,1,0,0,1-.2-.24,6.68,6.68,0,0,0-4.43-4L37.33,63.77a10.34,10.34,0,0,0-6.81.11,4.86,4.86,0,0,1-.1-.68c0-3.14,0-6.29,0-9.43A17.26,17.26,0,0,1,45.05,37.09,8.8,8.8,0,0,1,46.59,37c5.54,0,11.09,0,16.63.1A21.62,21.62,0,0,1,66.8,37.79Z"/><path class="cls-1" d="M70.93,17.51A16.53,16.53,0,1,1,54.4,1,16.53,16.53,0,0,1,70.93,17.51Z"/><path class="cls-1" d="M28.9,87.7,19.83,73.5l4.64-2.82c1.78-1.08,3.58-2.15,5.34-3.26a7.86,7.86,0,0,1,7.05-.8q11.53,3.84,23.08,7.65A3.63,3.63,0,0,1,62.36,79a3.44,3.44,0,0,1-4.61,2.31c-1.18-.36-2.34-.75-3.51-1.13l-6.9-2.3a1.5,1.5,0,0,0-2.07.79c-.3.87.14,1.61,1.17,2,3.41,1.13,6.82,2.27,10.24,3.38,3.86,1.25,7.17-.45,8.5-4.3a2,2,0,0,1,.73-1Q73,74.15,80.05,69.64a3.69,3.69,0,0,1,5.2,1,3.64,3.64,0,0,1-1.15,5.11Q73,83,61.8,90.07c-2.78,1.76-5.66,1.45-8.64.42-5.8-2-11.64-3.88-17.46-5.82a2.4,2.4,0,0,0-2.27.28C32,85.89,30.47,86.76,28.9,87.7Z"/><path class="cls-1" d="M79.63,61.76l-9.85-9.88a11.28,11.28,0,0,1-2.9-3.77,7.28,7.28,0,0,1,11.44-8.24c1.36,1.13,1.65,1.13,3,0a7.4,7.4,0,0,1,9.73.3c2.68,2.58,3.18,7,.65,9.71C87.85,54,83.72,57.76,79.63,61.76Zm-1.24-11.7c0,1.09,0,2.06,0,3a1.42,1.42,0,0,0,1.88,1.39,1.48,1.48,0,0,0,1-1.55c0-.93,0-1.86,0-2.86h2.79c1.1,0,1.74-.59,1.71-1.49s-.62-1.35-1.72-1.36H81.27V45.71c0-.48,0-1,0-1.45-.05-1-.58-1.57-1.45-1.56a1.38,1.38,0,0,0-1.41,1.5c0,1,0,2,0,2.91-.22,0-.28.08-.33.08-.83,0-1.66,0-2.49,0-1.12,0-1.64.47-1.64,1.41s.59,1.42,1.66,1.44C76.47,50.08,77.35,50.06,78.39,50.06Z"/><path class="cls-1" d="M15.8,72.54,29,93.17,19.84,99,6.67,78.37Z"/></svg>