<svg id="Layer_1" data-name="Layer 1" xmlns="http://www.w3.org/2000/svg" viewBox="0 0 100 100"><defs><style>.cls-1{fill:#fff;}</style></defs><path class="cls-1" d="M49.61,57A12.46,12.46,0,1,1,62,44.51,12.4,12.4,0,0,1,49.61,57Z"/><path class="cls-1" d="M82.75,93.27A16.76,16.76,0,1,1,99.5,76.49,16.74,16.74,0,0,1,82.75,93.27ZM80.37,77.92,77,74.44a2.48,2.48,0,0,0-2.2-.84,2.44,2.44,0,0,0-1.36,4.19Q76,80.42,78.61,83a2.49,2.49,0,0,0,3.92,0q2.58-2.58,5.14-5.18c1.49-1.51,3-3,4.45-4.54a2.42,2.42,0,0,0-.69-4,2.51,2.51,0,0,0-2.92.7Z"/><path class="cls-1" d="M63.22,81H28.08c-2,0-2.87-1.09-2.39-3,2.18-8.69,7.48-14.73,15.91-17.64,8.66-3,16.69-1.33,23.86,4.41.55.44.61.74.23,1.37a19.61,19.61,0,0,0-2.57,14.09C63.16,80.44,63.18,80.66,63.22,81Z"/><path class="cls-1" d="M35.55,27.75c-1.55-.1-3.1-.16-4.65-.32a1.5,1.5,0,0,0-1.77,1c-.79,1.74-1.69,3.44-2.58,5.14-.15.29-.49.47-.74.7a3.25,3.25,0,0,1-.58-.84c-.55-1.93-1.08-3.86-1.54-5.81a1.25,1.25,0,0,0-1.2-1.06c-1.95-.28-3.91-.57-5.86-.89a3.57,3.57,0,0,1-.9-.48,3.34,3.34,0,0,1,.6-.81c1.67-1.11,3.35-2.21,5.05-3.27A1.13,1.13,0,0,0,22,19.74c-.37-2-.66-4-.95-6a2.57,2.57,0,0,1,.17-.92,3.09,3.09,0,0,1,1,.3c1.58,1.25,3.14,2.51,4.66,3.81a1.16,1.16,0,0,0,1.51.17q2.65-1.42,5.35-2.75a2.75,2.75,0,0,1,1-.12,3.38,3.38,0,0,1,0,1C34,17.1,33.3,19,32.54,20.82a1.16,1.16,0,0,0,.32,1.49c1.45,1.38,2.87,2.81,4.27,4.24a3,3,0,0,1,.41.93,5.67,5.67,0,0,1-1,.29,5.8,5.8,0,0,1-1,0Z"/><path class="cls-1" d="M83.75,48.61c.1-1.92.18-3.84.3-5.76a1.1,1.1,0,0,0-.71-1.25c-1.81-.86-3.59-1.78-5.36-2.71-.29-.15-.48-.49-.72-.74a3.41,3.41,0,0,1,.89-.62C80.08,37,82,36.49,84,36a1.11,1.11,0,0,0,.94-1.1c.27-2,.59-4,.92-6a2.84,2.84,0,0,1,.47-.82c.28.18.66.31.83.57,1.12,1.66,2.21,3.34,3.25,5.05a1.19,1.19,0,0,0,1.39.64q2.91-.52,5.85-1a3.82,3.82,0,0,1,1.08.18,3.31,3.31,0,0,1-.36,1c-1.2,1.53-2.43,3.05-3.69,4.53a1.24,1.24,0,0,0-.19,1.65c1,1.72,1.83,3.5,2.71,5.27a3.29,3.29,0,0,1,.14,1,3.18,3.18,0,0,1-1.07,0q-2.87-1.05-5.69-2.2a1,1,0,0,0-1.26.28c-1.36,1.4-2.73,2.79-4.13,4.15a5.25,5.25,0,0,1-1.08.65l-.5-1.23Z"/><path class="cls-1" d="M1.07,33.27c2.08.35,4,.63,5.92,1a1.66,1.66,0,0,0,2.07-.9c.92-1.61,2-3.16,3-4.71.17-.26.54-.4.81-.6a2.9,2.9,0,0,1,.49.89c.34,2,.68,3.95.93,5.93a1.16,1.16,0,0,0,1,1.14c1.95.49,3.88,1,5.81,1.53a3.13,3.13,0,0,1,.85.58c-.23.26-.41.6-.69.75-1.8,1-3.61,1.88-5.44,2.76a1,1,0,0,0-.67,1.19q.21,3,.32,6.09a2.93,2.93,0,0,1-.31,1,3.07,3.07,0,0,1-.91-.43q-2.19-2.15-4.3-4.33a1,1,0,0,0-1.34-.29c-1.87.77-3.78,1.49-5.68,2.2a3.08,3.08,0,0,1-1,0,2.73,2.73,0,0,1,.09-1c.87-1.77,1.76-3.54,2.71-5.27a1.3,1.3,0,0,0-.2-1.73C3.23,37.54,2,36,.73,34.4a1.06,1.06,0,0,1-.21-.81C.56,33.42,1,33.34,1.07,33.27Z"/><path class="cls-1" d="M42.58,25.58c.47-1.76.91-3.42,1.38-5.08.59-2.09.61-2.09-1.08-3.46-1.25-1-2.52-2-3.75-3a3.15,3.15,0,0,1-.5-.81,2.94,2.94,0,0,1,.91-.41q3.09-.22,6.18-.33a1,1,0,0,0,1-.7c.71-1.93,1.44-3.86,2.2-5.77a3.24,3.24,0,0,1,.72-.82,3.51,3.51,0,0,1,.65.81q1.13,2.82,2.16,5.69a1,1,0,0,0,1.11.79c2,.07,4.07.18,6.09.32a2.87,2.87,0,0,1,.91.42,2.72,2.72,0,0,1-.48.81c-1.5,1.24-3,2.49-4.56,3.66a1.42,1.42,0,0,0-.58,1.79c.57,1.89,1.06,3.8,1.55,5.71.07.26,0,.76-.09.81a1.09,1.09,0,0,1-.9-.07c-1.74-1.1-3.47-2.22-5.17-3.38a1.1,1.1,0,0,0-1.44,0c-1.71,1.16-3.44,2.28-5.17,3.39a1.38,1.38,0,0,1-.85.15C42.74,26,42.65,25.71,42.58,25.58Z"/><path class="cls-1" d="M78.25,13.25c-.35,2.16-.65,4.23-1,6.28a1.35,1.35,0,0,0,.71,1.66c1.7,1,3.34,2.11,5,3.21a2.72,2.72,0,0,1,.56.75,2.64,2.64,0,0,1-.86.51q-2.92.49-5.86.9a1.27,1.27,0,0,0-1.25,1.1c-.47,2-1,3.93-1.58,5.89-.07.27-.37.48-.56.72-.22-.19-.52-.34-.65-.58-.91-1.75-1.83-3.5-2.66-5.29a1.46,1.46,0,0,0-1.7-1c-1.91.17-3.83.26-5.75.35a3.21,3.21,0,0,1-.91-.26c.12-.32.15-.72.37-.94q2.11-2.19,4.32-4.31a1.09,1.09,0,0,0,.3-1.41Q65.54,18,64.49,15.17a2.82,2.82,0,0,1,0-1,2.85,2.85,0,0,1,.94.14c1.82.9,3.64,1.82,5.42,2.79a1.12,1.12,0,0,0,1.44-.16c1.58-1.33,3.18-2.63,4.79-3.92a1.25,1.25,0,0,1,.83-.21C78.06,12.81,78.17,13.13,78.25,13.25Z"/></svg>